<?xml version="1.0" standalone="no"?>
<!DOCTYPE svg PUBLIC "-//W3C//DTD SVG 20010904//EN"
 "http://www.w3.org/TR/2001/REC-SVG-20010904/DTD/svg10.dtd">
<svg version="1.0" xmlns="http://www.w3.org/2000/svg"
 width="512.000000pt" height="512.000000pt" viewBox="0 0 512.000000 512.000000"
 preserveAspectRatio="xMidYMid meet">
<metadata>
Created by potrace 1.14, written by Peter Selinger 2001-2017
</metadata>
<g transform="translate(0.000000,512.000000) scale(0.100000,-0.100000)"
fill="#000000" stroke="none">
<path d="M3825 5096 c-162 -228 -252 -371 -389 -619 -136 -247 -309 -611 -416
-877 -23 -58 -48 -119 -56 -136 -7 -17 -49 -130 -93 -251 -161 -445 -271 -854
-339 -1258 l-8 -50 -8 55 c-7 47 -58 295 -70 340 -2 8 -7 29 -11 45 -17 75
-81 285 -132 435 -175 515 -500 1207 -818 1742 -156 262 -360 558 -375 542 -4
-5 -12 -22 -18 -39 -6 -16 -27 -73 -47 -125 -144 -378 -426 -1321 -530 -1770
-2 -8 -27 -112 -55 -230 -28 -118 -53 -222 -55 -230 -2 -8 -21 -97 -44 -197
-22 -100 -42 -192 -45 -205 -2 -13 -12 -56 -20 -95 -9 -40 -18 -85 -21 -100
-3 -16 -7 -39 -10 -53 -3 -14 -14 -74 -25 -135 -12 -60 -25 -130 -30 -155 -8
-38 -26 -140 -46 -265 -3 -16 -7 -37 -9 -45 -2 -8 -6 -37 -10 -65 -3 -27 -8
-57 -10 -65 -2 -8 -6 -37 -10 -65 -3 -27 -10 -75 -15 -105 -5 -30 -12 -82 -16
-115 -3 -33 -8 -62 -9 -65 -2 -3 -6 -39 -10 -80 -4 -41 -8 -77 -10 -80 -2 -3
-6 -43 -10 -90 -4 -47 -9 -92 -10 -101 -2 -9 -6 -52 -10 -95 -3 -43 -8 -92
-10 -109 -4 -35 -16 -221 -19 -313 -2 -35 1 -65 5 -67 12 -8 171 409 259 680
55 171 165 536 174 580 1 6 10 35 19 65 21 71 129 497 168 665 17 72 32 137
34 145 2 8 13 60 25 115 26 120 26 119 39 175 5 25 12 57 15 73 2 15 7 35 10
45 3 9 7 33 10 52 3 19 14 76 25 126 11 50 23 111 26 135 4 24 8 46 10 49 3 5
49 249 61 324 3 21 8 48 10 60 2 11 7 37 10 56 3 19 11 69 19 110 14 78 21
118 30 185 4 22 12 78 20 125 8 47 17 105 20 130 3 25 8 56 10 70 3 14 7 43
10 65 2 22 6 58 10 80 8 56 13 91 21 160 3 33 8 69 10 80 2 11 6 45 9 75 3 30
7 69 10 85 2 17 7 62 10 100 4 39 8 84 10 100 5 43 18 216 19 242 0 35 13 17
20 -29 4 -24 22 -106 41 -183 92 -380 244 -834 432 -1295 76 -186 84 -205 175
-405 64 -141 190 -389 245 -483 24 -40 43 -74 43 -77 0 -8 173 -282 237 -375
63 -91 153 -209 199 -258 l21 -24 50 69 c251 339 551 908 781 1478 68 168 194
512 207 565 1 3 5 12 8 20 7 17 107 345 112 369 2 9 8 31 14 49 5 17 8 32 5
32 -3 0 -1 8 5 18 8 15 73 285 85 357 3 17 10 55 16 85 5 30 12 71 15 90 8 45
15 51 16 14 0 -16 2 -37 4 -46 2 -9 6 -54 9 -100 4 -46 8 -90 11 -98 2 -8 6
-42 10 -75 3 -33 8 -73 10 -90 8 -58 36 -251 40 -276 2 -13 6 -40 9 -59 14
-93 63 -379 92 -535 6 -34 84 -422 89 -445 2 -8 20 -89 40 -180 46 -206 40
-179 65 -285 12 -49 24 -99 26 -110 2 -11 18 -74 34 -140 17 -66 33 -127 35
-135 33 -132 48 -190 70 -270 14 -52 28 -105 30 -117 10 -44 178 -614 221
-748 117 -363 298 -869 369 -1030 7 -16 25 -59 40 -95 15 -36 30 -69 35 -75 4
-5 10 -23 14 -38 12 -51 28 -18 22 47 -3 33 -8 93 -11 131 -3 39 -8 81 -10 95
-3 14 -7 48 -10 75 -7 74 -17 157 -21 179 -2 10 -6 44 -10 75 -3 31 -8 63 -9
71 -2 8 -8 51 -15 95 -6 44 -13 91 -16 105 -5 32 -22 133 -30 185 -3 22 -19
112 -35 200 -17 88 -35 187 -40 219 -6 33 -12 62 -14 65 -1 3 -6 23 -9 43 -3
21 -15 81 -27 135 -12 54 -23 107 -25 118 -7 36 -12 59 -28 126 -8 37 -17 78
-20 90 -12 64 -93 399 -146 604 -98 381 -115 441 -233 845 -134 456 -347 1066
-498 1424 -33 78 -63 144 -67 148 -4 4 -12 1 -17 -6z"/>
</g>
</svg>
